<svg id="Layer_1" data-name="Layer 1" xmlns="http://www.w3.org/2000/svg" xmlns:xlink="http://www.w3.org/1999/xlink" viewBox="0 0 59.66 54.77"><defs><clipPath id="clip-path" transform="translate(2.27 -0.74)"><rect x="1.13" y="0.87" width="51.23" height="54.52" rx="7.2" ry="7.2" style="fill:none"/></clipPath></defs><title>m_lab_logo</title><rect x="3.5" y="0.13" width="51.23" height="54.52" rx="7.2" ry="7.2" style="fill:none;stroke:#000;stroke-miterlimit:10;stroke-width:0.25px"/><path d="M50.64,3.4l-.28.26c-13,0-23.52,18.38-23.52,41.09h-.05C26.79,22,16.2,3.66,3.11,3.66l-.27-.24A7.17,7.17,0,0,1,8.33.87H45.16A7.18,7.18,0,0,1,50.64,3.4Z" transform="translate(2.27 -0.74)" style="fill:#e8e9ea"/><path d="M50.64,3.4a7.1,7.1,0,0,1,1.72,4.67V48.19a7.2,7.2,0,0,1-7.2,7.2H8.33a7.21,7.21,0,0,1-7.2-7.2V8.07A7.21,7.21,0,0,1,8.33.87H45.16A7.18,7.18,0,0,1,50.64,3.4Z" transform="translate(2.27 -0.74)" style="fill:none;stroke:#000;stroke-miterlimit:10;stroke-width:0.25px"/><path d="M26.79,44.75C26.79,22,16.2,3.66,3.11,3.66" transform="translate(2.27 -0.74)" style="fill:none;stroke:#13294b;stroke-linecap:round;stroke-miterlimit:10"/><path d="M26.84,44.75C26.84,22,37.36,3.66,50.36,3.66" transform="translate(2.27 -0.74)" style="fill:none;stroke:#13294b;stroke-linecap:round;stroke-miterlimit:10"/><g style="clip-path:url(#clip-path)"><circle cx="3.41" cy="51.36" r="3.28" style="fill:#e84a27;stroke:#000;stroke-miterlimit:10;stroke-width:0.25px"/><circle cx="9.98" cy="51.36" r="3.28" style="fill:#e84a27;stroke:#000;stroke-miterlimit:10;stroke-width:0.25px"/><circle cx="16.74" cy="51.36" r="3.28" style="fill:#e84a27;stroke:#000;stroke-miterlimit:10;stroke-width:0.25px"/><circle cx="23.41" cy="51.36" r="3.28" style="fill:#e84a27;stroke:#000;stroke-miterlimit:10;stroke-width:0.25px"/><circle cx="29.98" cy="51.36" r="3.28" style="fill:#e84a27;stroke:#000;stroke-miterlimit:10;stroke-width:0.25px"/><circle cx="36.55" cy="51.36" r="3.28" style="fill:#e84a27;stroke:#000;stroke-miterlimit:10;stroke-width:0.25px"/><circle cx="43.11" cy="51.36" r="3.28" style="fill:#e84a27;stroke:#000;stroke-miterlimit:10;stroke-width:0.25px"/><circle cx="49.68" cy="51.36" r="3.28" style="fill:#e84a27;stroke:#000;stroke-miterlimit:10;stroke-width:0.25px"/><circle cx="56.25" cy="51.36" r="3.28" style="fill:#e84a27;stroke:#000;stroke-miterlimit:10;stroke-width:0.25px"/></g><line x1="3.81" y1="44.01" x2="3.81" y2="7.33" style="fill:none;stroke:#13294b;stroke-linecap:round;stroke-miterlimit:10"/><line x1="54.21" y1="44.01" x2="54.21" y2="7.33" style="fill:none;stroke:#13294b;stroke-linecap:round;stroke-miterlimit:10;stroke-width:0.75px"/><path d="M51.94,8.07c0-2.37-.7-4.3-1.57-4.3" transform="translate(2.27 -0.74)" style="fill:none;stroke:#13294b;stroke-linecap:round;stroke-miterlimit:10;stroke-width:0.75px"/><path d="M1.54,8.07c0-2.43.87-4.4,1.94-4.4" transform="translate(2.27 -0.74)" style="fill:none;stroke:#13294b;stroke-linecap:round;stroke-miterlimit:10"/></svg>